<?xml version="1.0" encoding="utf-8"?>
<!-- Generator: Adobe Illustrator 24.3.0, SVG Export Plug-In . SVG Version: 6.00 Build 0)  -->
<svg version="1.1" id="Layer_1" xmlns="http://www.w3.org/2000/svg" xmlns:xlink="http://www.w3.org/1999/xlink" x="0px" y="0px"
	 viewBox="0 0 595.28 687" style="enable-background:new 0 0 595.28 687;" xml:space="preserve">
<g>
	<path d="M548.28,637.87v8.63h11v0.22c-2.15,7.06-6.71,12.43-13.6,16.86l6.17,7.6c3.44-2.41,6.57-5.28,9.21-8.59l7.15,7.78l5.73-6.8
		l-8.14-8.36c2.55-5.05,4.25-10.87,4.78-17.35H548.28z M584.36,649.05V633.4h-9.39v42.93h9.39v-17.44h4.92v-9.84H584.36z
		 M539.65,670.47v-10.02h-32.64v4.74h22.8v1.07h-22.35v10.28h33.53v-5.01h-23.7v-1.07H539.65z M515.64,647.8
		c2.06,0,3.58,0.22,3.58,0.72c0,0.49-1.52,0.67-3.58,0.67c-2.24,0-3.58-0.18-3.58-0.67C512.06,648.02,513.4,647.8,515.64,647.8
		 M528.65,653.26c-2.64,0.18-5.54,0.36-8.67,0.45v-1.03c4.52-0.45,6.84-1.79,6.84-3.93c0-2.68-3.8-4.2-11.18-4.2
		c-7.42,0-11.22,1.52-11.22,4.2c0,2.1,2.23,3.4,6.62,3.93v1.25c-3.04,0.04-6.21,0.04-9.61,0.04l0.63,5.54
		c9.61,0,19.54-0.4,26.92-0.98L528.65,653.26z M502.09,643.82h26.16v-5.14h-26.16V643.82z M539.65,633.4h-9.16v25.71h9.16v-6.62
		h4.92v-8.27h-4.92V633.4z M506.83,637.83h17.97v-4.61h-17.97V637.83z M481.16,669.98c0.8-0.76,1.43-1.52,1.88-2.37
		c0.8-1.43,1.25-3.09,1.34-4.56h-31.79v5.54h15.43l4.47-0.22v0.18c-4.16,1.07-12.25,1.52-23.39,1.21l2.73,6.57
		c7.74-0.04,14.04-0.63,19-1.74l14.58,1.79l2.33-6.13L481.16,669.98z M479.02,656.88h-21.06v5.14h21.06V656.88z M455.54,645.39h6.62
		v3.13h-6.62V645.39z M462.16,634.74v4.34h-6.62v-4.34h-8.45v20.57h23.47v-20.57H462.16z M475.48,655.76h9.61V633.4h-9.61V655.76z
		 M439.58,676.55v-5.99h-24.23v-1.25h22.36v-11.76h-32.64v5.59h22.8v1.25h-22.36v12.16H439.58z M442.84,649.28h-42.48v6.93h42.48
		V649.28z M421.6,642.43c-2.55,0-4.25-0.18-5.81-0.58c-0.4-0.18-0.58-0.45-0.58-0.8c0-0.36,0.18-0.63,0.58-0.8
		c1.56-0.4,3.26-0.54,5.81-0.54c2.55,0,4.25,0.13,5.81,0.54c0.4,0.18,0.58,0.45,0.58,0.8c0,0.36-0.18,0.63-0.58,0.8
		C425.85,642.26,424.15,642.43,421.6,642.43 M421.6,648.38c10.64,0,16.81-2.37,16.81-7.42c0-4.69-6.17-7.42-16.81-7.42
		c-10.6,0-16.81,2.73-16.81,7.42C404.79,646.01,411.01,648.38,421.6,648.38 M381.72,657.55h11.49v-8.67h-22.18v-12.56h-9.79v21.24
		h10.87v6.71h-16.45v8.94h42.48v-8.94h-16.41V657.55z M326.81,668.55v8h9.39v-15.2h-32.42v7.2H326.81z M325.38,647.26h-9.61v4.69
		h-16.45v7.38h42.48v-7.38h-16.41V647.26z M337,650.93l3.89-6.57l-15.56-6.08c0.76-1.07,1.39-2.19,1.97-3.44l-8.76-1.83
		c-2.19,4.74-8.23,8.41-18.33,11.31l4.56,6.93c5.9-2.1,11.04-4.29,15.11-7.38L337,650.93z M257.73,667.88h12.83v2.01h-12.83V667.88z
		 M280.08,662.02h-31.75v14.31h31.75V662.02z M285.45,653.84h-42.48v6.71h42.48V653.84z M281.25,652.41v-5.54h-23.52v-1.21h22.22
		v-12.03h-32.06v5.72h22.67v1.25h-22.22v11.8H281.25z M232.78,653.08c1.16-4.52,2.1-10.6,2.24-17.89h-32.1v8.09h22.27
		c-0.13,3.35-0.58,6.75-1.21,9.79h-25.71v8.27h16.32v14.76h9.84v-14.76h16.32v-8.27H232.78z M172.06,649.28
		c0.67-3.22,1.07-6.71,1.16-10.46H155.2v8.67h8.14v0.22c-0.72,5.54-3.98,11.63-10.46,16.54l6.75,7.15
		c3.98-3.49,7.15-7.74,9.43-12.74h6.62v16.1h8.27v-39.8h-8.27v14.31H172.06z M185.74,676.33h8.5V633.4h-8.5V676.33z M136.55,668.37
		c0,0.45-0.22,0.8-0.67,1.03c-1.52,0.54-3.26,0.8-5.81,0.8c-2.55,0-4.29-0.27-5.81-0.8c-0.45-0.22-0.67-0.58-0.67-1.03
		s0.22-0.85,0.67-1.07c1.52-0.49,3.26-0.76,5.81-0.76c2.55,0,4.29,0.27,5.81,0.76C136.33,667.52,136.55,667.92,136.55,668.37
		 M151.31,651.29h-42.48v7.38h16.54v1.79c-7.74,0.8-12.21,3.71-12.21,8.09c0,5.5,6.3,8.32,16.9,8.32c10.6,0,16.9-2.82,16.9-8.32
		c0-4.38-4.47-7.29-12.21-8.09v-1.79h16.54V651.29z M123.72,640.78h12.7v2.64h-12.7V640.78z M114.2,649.72h31.75V634.3H114.2V649.72
		z M59.2,661.35v14.98h32.64v-8.27H68.81v-6.71H59.2z M62.19,647.71c0-2.91,0.98-4.47,3.44-4.47c2.46,0,3.44,1.57,3.44,4.47
		c0,2.95-0.98,4.52-3.44,4.52C63.18,652.23,62.19,650.66,62.19,647.71 M77.75,647.71c0-7.96-5.28-11.63-12.16-11.63
		c-6.93,0-12.21,3.67-12.21,11.63c0,8,5.28,11.67,12.21,11.67C72.48,659.38,77.75,655.71,77.75,647.71 M95.64,639.89h-4.92v-6.48
		h-9.39v31.97h9.39v-6.93h4.92v-7.6h-4.92v-3.35h4.92V639.89z M21.32,664.84c-2.15,0-3.17-1.12-3.17-2.5s1.03-2.5,3.17-2.5
		s3.17,1.12,3.17,2.5S23.47,664.84,21.32,664.84 M21.32,653.21c-6.71,0-11.31,3.62-11.31,9.35c0,5.77,4.61,9.3,11.31,9.3
		s11.27-3.53,11.27-9.3C32.59,656.83,28.03,653.21,21.32,653.21 M34.38,644.4H8v7.82h26.38V644.4z M12.47,642.84h17.66v-6.93H12.47
		V642.84z M46.01,649.05V633.4h-9.39v42.93h9.39v-17.44h4.92v-9.84H46.01z"/>
	<path d="M548.55,569.35v7.15h12.61v0.22c-2.1,7.29-7.51,13.64-15.2,18.29l5.05,6.3c3.85-2.55,7.33-5.63,10.28-9.3l7.96,8.5
		l4.74-5.68l-8.63-8.81c2.68-4.83,4.52-10.42,5.14-16.68H548.55z M583.65,580.98V564.3h-7.78v42.93h7.78v-18.29h5.63v-7.96H583.65z
		 M538.93,601.23v-9.75h-31.3v4.29h23.21v1.57h-22.58v10.06h32.15v-4.52h-24.1v-1.65H538.93z M511.43,579.5
		c0-0.76,1.61-1.07,4.2-1.07c2.5,0,4.25,0.31,4.25,1.07c0,0.72-1.74,1.03-4.25,1.03C513.04,580.53,511.43,580.22,511.43,579.5
		 M529.18,584.33c-3.04,0.36-6.35,0.63-9.97,0.85v-1.3c4.61-0.45,7.06-1.88,7.06-4.2c0-2.82-3.71-4.38-10.64-4.38
		c-6.93,0-10.69,1.57-10.69,4.38c0,2.28,2.37,3.71,6.84,4.2v1.57c-3.17,0.04-6.62,0.09-10.29,0.09l0.54,4.92
		c10.42,0,20.03-0.49,27.5-1.43L529.18,584.33z M502.22,574.32h25.98v-4.56h-25.98V574.32z M507.14,568.59h17.35v-4.2h-17.35V568.59
		z M538.93,564.3h-7.6v25.62h7.6v-7.2h5.72v-6.89h-5.72V564.3z M479.78,601.32c1.12-0.85,1.92-1.74,2.55-2.73
		c0.89-1.43,1.39-2.95,1.48-4.34h-30.32v4.92H469l4.74-0.18v0.13c-4.16,1.57-12.79,2.46-23.88,2.33l2.41,5.63
		c7.51-0.09,13.64-0.76,18.42-1.92l14.71,1.97l2.1-5.28L479.78,601.32z M478.66,588.04h-20.03v4.61h20.03V588.04z M454.69,576.46
		h8.5v3.93h-8.5V576.46z M463.19,566.09v4.96h-8.5v-4.96h-7.06v20.03h22.63v-20.03H463.19z M476.56,586.97h7.96V564.3h-7.96V586.97z
		 M439,607.31v-5.23H414.4v-2.01h22.45v-11.31h-31.08v4.92h22.98v1.97h-22.45v11.67H439z M442.84,580.8h-42.48v5.95h42.48V580.8z
		 M421.6,574.09c-3.09,0-5.23-0.31-6.8-0.89c-0.49-0.27-0.72-0.67-0.72-1.16c0-0.54,0.18-0.94,0.72-1.21
		c1.57-0.58,3.71-0.85,6.8-0.85c3.09,0,5.19,0.27,6.8,0.85c0.54,0.27,0.76,0.67,0.76,1.21c0,0.49-0.27,0.89-0.76,1.16
		C426.83,573.78,424.69,574.09,421.6,574.09 M421.6,579.32c10.11,0,16.05-2.41,16.05-7.38c0-4.69-5.95-7.33-16.05-7.33
		c-10.11,0-16.05,2.64-16.05,7.33C405.55,576.91,411.5,579.32,421.6,579.32 M380.87,588.45h12.03v-7.15h-22.98v-13.77h-8.09v20.93
		h11.13v7.69h-17.3v7.38h42.48v-7.38h-17.26V588.45z M327.79,598.82v8.63h7.82v-14.76h-31.21v6.13H327.79z M324.53,578.07h-7.91
		v5.54h-17.3v6.3h42.48v-6.3h-17.26V578.07z M336.91,581.83l3.35-5.59l-15.87-6.84c0.8-1.16,1.52-2.37,2.1-3.71l-7.38-1.61
		c-2.33,5.28-8.85,9.35-18.47,12.16l3.8,5.9c5.86-2.06,11.18-4.52,15.34-7.87L336.91,581.83z M256.79,598.24h14.71v3.31h-14.71
		V598.24z M279.37,593.1H249.1v14h30.27V593.1z M285.45,585.23h-42.48v5.77h42.48V585.23z M280.8,583.17v-4.87h-24.01v-1.92h22.45
		v-11.45h-30.67v5.01h22.94v1.88h-22.49v11.36H280.8z M231.97,584.42c1.21-4.69,2.15-10.69,2.33-17.97h-30.9v6.75h22.71
		c-0.13,3.89-0.67,7.74-1.39,11.22h-26.47v6.89h17.21v15.83h8.09v-15.83h17.17v-6.89H231.97z M171.79,581.07
		c0.8-3.31,1.34-6.89,1.52-10.78h-17.89v7.15h9.61v0.22c-0.85,6.13-4.52,12.92-11.8,17.97l5.59,5.99
		c4.29-3.44,7.74-7.74,10.19-12.92h7.51v16.95h6.98v-39.75h-6.98v15.16H171.79z M186.63,607.22h7.15V564.3h-7.15V607.22z
		 M137.63,599.36c0,0.63-0.27,1.16-0.85,1.52c-1.56,0.67-3.67,1.07-6.71,1.07c-3.04,0-5.19-0.4-6.71-1.07
		c-0.54-0.36-0.85-0.89-0.85-1.52c0-0.63,0.27-1.21,0.85-1.56c1.52-0.67,3.67-1.03,6.71-1.03c3.04,0,5.14,0.4,6.71,1.03
		C137.36,598.15,137.63,598.73,137.63,599.36 M151.31,582.63h-42.48v6.26h17.39v2.55c-7.78,0.67-12.25,3.58-12.25,8.05
		c0,5.37,5.99,8.18,16.1,8.18c10.11,0,16.1-2.82,16.1-8.18c0-4.47-4.47-7.38-12.25-8.05v-2.55h17.39V582.63z M122.83,571.05h14.49
		v3.89h-14.49V571.05z M114.96,580.4h30.27v-14.93h-30.27V580.4z M60,592.25v14.8h31.3v-6.93H67.96v-7.87H60z M61.03,578.56
		c0-3.4,1.56-5.14,4.52-5.14s4.52,1.74,4.52,5.14c0,3.44-1.56,5.19-4.52,5.19S61.03,582.01,61.03,578.56 M77.35,578.56
		c0-7.56-5.05-11.22-11.8-11.22c-6.84,0-11.89,3.67-11.89,11.22c0,7.6,5.05,11.27,11.89,11.27
		C72.3,589.83,77.35,586.16,77.35,578.56 M95.64,571.5h-5.63v-7.2h-7.78v32.02h7.78v-7.65h5.63v-6.35h-5.63v-4.47h5.63V571.5z
		 M21.55,596.18c-2.64,0-4.02-1.34-4.02-3.26c0-1.88,1.39-3.22,4.02-3.22c2.59,0,3.93,1.34,3.93,3.22
		C25.48,594.84,24.14,596.18,21.55,596.18 M21.55,583.97c-6.48,0-10.91,3.62-10.91,9.12c0,5.5,4.43,9.08,10.91,9.08
		c6.44,0,10.82-3.58,10.82-9.08C32.37,587.6,27.99,583.97,21.55,583.97 M34.52,575.57H8.09v6.57h26.43V575.57z M12.78,572.93h17.48
		v-5.95H12.78V572.93z M45.29,580.84V564.3h-7.78v42.93h7.78V588.8h5.63v-7.96H45.29z"/>
	<path d="M548.72,500.74v5.95h13.91v0.18c-2.06,7.47-8.09,14.67-16.46,19.5l4.12,5.28c4.2-2.64,8.05-5.9,11.22-9.84l8.59,9.03
		l3.93-4.78l-9.08-9.12c2.86-4.74,4.78-10.15,5.46-16.19H548.72z M583.02,512.68V495.2h-6.44v42.93h6.44v-19h6.26v-6.44H583.02z
		 M538.31,532.04v-9.57h-30.18v3.98h23.52v1.97h-22.76v9.79h31.03v-4.07h-24.37v-2.1H538.31z M510.9,510.49
		c0-0.94,1.83-1.39,4.74-1.39c2.86,0,4.74,0.45,4.74,1.39c0,0.89-1.88,1.34-4.74,1.34C512.73,511.83,510.9,511.38,510.9,510.49
		 M529.59,515.41c-3.35,0.54-6.93,0.89-10.95,1.12V515c4.69-0.4,7.24-1.92,7.24-4.38c0-2.95-3.67-4.56-10.24-4.56
		c-6.57,0-10.24,1.61-10.24,4.56c0,2.41,2.46,3.89,6.98,4.38v1.83c-3.31,0.09-6.89,0.13-10.82,0.13l0.49,4.43
		c11.04,0,20.39-0.58,27.95-1.83L529.59,515.41z M502.31,504.9h25.84v-4.11h-25.84V504.9z M507.36,499.4h16.86v-3.89h-16.86V499.4z
		 M538.31,495.2h-6.35v25.58h6.35v-7.74h6.39v-5.72h-6.39V495.2z M478.61,532.58c1.34-0.89,2.41-1.92,3.13-3
		c0.98-1.43,1.48-2.86,1.61-4.2H454.2v4.43h15.56l4.96-0.13v0.13c-4.11,1.97-13.19,3.17-24.23,3.17l2.1,4.92
		c7.33-0.18,13.32-0.89,18.02-2.1l14.8,2.15l1.92-4.56L478.61,532.58z M478.34,519.16h-19.18v4.16h19.18V519.16z M454.02,507.49
		h10.02v4.56h-10.02V507.49z M464.04,497.39v5.41h-10.02v-5.41h-5.95v19.58h21.91v-19.58H464.04z M477.41,518.13h6.62V495.2h-6.62
		V518.13z M438.5,538.12v-4.61h-24.86v-2.64h22.58v-10.95h-29.91v4.38h23.21v2.55h-22.58v11.27H438.5z M442.84,512.23h-42.48v5.14
		h42.48V512.23z M421.6,505.61c-3.49,0-5.99-0.4-7.56-1.12c-0.63-0.36-0.89-0.89-0.89-1.52c0-0.63,0.27-1.12,0.89-1.48
		c1.56-0.72,4.07-1.12,7.56-1.12s5.95,0.4,7.56,1.12c0.63,0.36,0.89,0.85,0.89,1.48c0,0.63-0.27,1.16-0.89,1.52
		C427.59,505.21,425.09,505.61,421.6,505.61 M421.6,510.27c9.7,0,15.47-2.41,15.47-7.33c0-4.69-5.77-7.33-15.47-7.33
		c-9.66,0-15.47,2.64-15.47,7.33C406.13,507.85,411.94,510.27,421.6,510.27 M380.2,519.34h12.43v-5.99h-23.65v-14.67h-6.66v20.66
		h11.27v8.45h-17.93v6.13h42.48v-6.13H380.2V519.34z M328.55,529.22v9.12h6.57v-14.35H304.9v5.23H328.55z M323.86,508.92h-6.62v6.22
		h-17.93v5.41h42.48v-5.41h-17.93V508.92z M336.87,512.68l2.91-4.74l-16.14-7.47c0.85-1.21,1.61-2.5,2.24-3.89l-6.26-1.48
		c-2.5,5.72-9.39,10.06-18.65,12.83l3.26,5.1c5.86-2.06,11.36-4.69,15.56-8.36L336.87,512.68z M256.07,528.69h16.19v4.34h-16.19
		V528.69z M278.74,524.17h-29.06v13.73h29.06V524.17z M285.45,516.48h-42.48v5.1h42.48V516.48z M280.44,513.98v-4.38h-24.41v-2.5
		h22.63v-10.95H249.1v4.47h23.16v2.37h-22.67v11H280.44z M231.39,515.68c1.21-4.87,2.1-10.82,2.33-18.06h-29.87v5.72h23.07
		c-0.22,4.38-0.8,8.5-1.61,12.34h-27.05v5.81h17.89v16.63h6.71v-16.63h17.89v-5.81H231.39z M171.52,512.68
		c0.98-3.4,1.61-7.06,1.83-11h-17.71v5.95h10.73v0.18c-0.94,6.62-4.96,14-12.88,19.18l4.69,5.05c4.56-3.4,8.27-7.78,10.91-13.15
		h8.09v17.66h5.9V496.9h-5.9v15.78H171.52z M187.35,538.08h6.04V495.2h-6.04V538.08z M138.47,530.3c0,0.8-0.31,1.48-0.98,1.92
		c-1.56,0.8-3.93,1.25-7.42,1.25c-3.49,0-5.86-0.45-7.42-1.25c-0.63-0.45-0.98-1.12-0.98-1.92c0-0.76,0.31-1.48,0.98-1.92
		c1.56-0.8,3.93-1.25,7.42-1.25c3.49,0,5.86,0.49,7.42,1.25C138.16,528.82,138.47,529.54,138.47,530.3 M151.31,513.89h-42.48v5.37
		h18.11v3.17c-7.78,0.58-12.3,3.44-12.3,7.96c0,5.28,5.72,8.09,15.43,8.09c9.7,0,15.43-2.82,15.43-8.09c0-4.52-4.47-7.38-12.25-7.96
		v-3.17h18.06V513.89z M122.06,501.46h16.01v4.92h-16.01V501.46z M115.54,511.16h29.06v-14.58h-29.06V511.16z M60.63,523.14v14.62
		h30.23V532H67.25v-8.85H60.63z M60.09,509.42c0-3.8,2.06-5.68,5.41-5.68c3.31,0,5.37,1.88,5.37,5.68c0,3.85-2.06,5.77-5.37,5.77
		C62.15,515.18,60.09,513.26,60.09,509.42 M77.04,509.42c0-7.2-4.87-10.87-11.58-10.87c-6.71,0-11.58,3.67-11.58,10.87
		c0,7.29,4.87,10.95,11.58,10.95C72.16,520.37,77.04,516.7,77.04,509.42 M95.64,502.93h-6.26v-7.74h-6.44v32.1h6.44v-8.27h6.26
		v-5.37h-6.26v-5.37h6.26V502.93z M21.68,527.44c-3,0-4.61-1.52-4.61-3.85c0-2.28,1.61-3.85,4.61-3.85c3.04,0,4.65,1.57,4.65,3.85
		C26.33,525.91,24.72,527.44,21.68,527.44 M21.68,514.78c-6.3,0-10.55,3.62-10.55,8.9c0,5.32,4.25,8.94,10.55,8.94
		s10.51-3.62,10.51-8.94C32.19,518.4,27.99,514.78,21.68,514.78 M34.6,506.69H8.13v5.59H34.6V506.69z M13.01,503.16H30.4v-5.1H13.01
		V503.16z M44.67,512.46V495.2h-6.44v42.93h6.44v-19.23h6.26v-6.44H44.67z"/>
	<path d="M548.9,432.04v5.01h14.89v0.13c-2.01,7.65-8.59,15.47-17.44,20.39l3.4,4.47c4.43-2.68,8.54-6.08,11.94-10.19l9.03,9.43
		l3.35-4.11l-9.43-9.39c2.95-4.61,4.97-9.88,5.68-15.74H548.9z M582.57,444.2v-18.11h-5.41v42.93h5.41v-19.54h6.71v-5.28H582.57z
		 M537.86,462.85v-9.39h-29.33v3.67h23.74v2.28h-22.85v9.66h30.09v-3.76h-24.59v-2.46H537.86z M510.49,441.43
		c0-1.12,2.01-1.61,5.14-1.61c3.13,0,5.18,0.49,5.18,1.61c0,1.07-2.05,1.61-5.18,1.61C512.51,443.04,510.49,442.5,510.49,441.43
		 M529.9,446.39c-3.58,0.67-7.42,1.12-11.76,1.43v-1.7c4.74-0.4,7.42-2.01,7.42-4.61c0-3-3.66-4.65-9.92-4.65
		c-6.26,0-9.88,1.65-9.88,4.65c0,2.55,2.55,4.11,7.11,4.56v2.01c-3.4,0.13-7.11,0.18-11.27,0.18l0.45,4.07
		c11.54,0,20.7-0.67,28.3-2.15L529.9,446.39z M502.4,435.53h25.71v-3.76H502.4V435.53z M507.54,430.21H524v-3.62h-16.45V430.21z
		 M537.86,426.09h-5.37v25.53h5.37v-8.09h6.89v-4.87h-6.89V426.09z M477.63,463.7c1.61-0.94,2.82-2.01,3.67-3.17
		c1.03-1.39,1.52-2.77,1.7-4.07h-28.26v4.02h15.65l5.1-0.09v0.13c-4.07,2.28-13.5,3.76-24.5,3.89l1.88,4.29
		c7.15-0.22,13.1-0.98,17.71-2.19l14.85,2.24l1.79-4.02L477.63,463.7z M478.12,450.24h-18.51v3.8h18.51V450.24z M453.48,438.48
		h11.18v5.1h-11.18V438.48z M464.66,428.6v5.77h-11.18v-5.77h-5.1v19.23h21.37V428.6H464.66z M478.08,449.26h5.54v-23.16h-5.54
		V449.26z M438.15,468.93v-4.11h-25.13v-3.13h22.67v-10.64h-28.93v3.98h23.34v2.95h-22.63v10.95H438.15z M442.84,443.53h-42.48v4.52
		h42.48V443.53z M421.6,437c-3.8,0-6.62-0.49-8.18-1.3c-0.67-0.45-0.98-1.07-0.98-1.79s0.27-1.3,0.98-1.74
		c1.56-0.8,4.38-1.3,8.18-1.3c3.8,0,6.57,0.49,8.18,1.3c0.72,0.45,0.98,1.03,0.98,1.74s-0.31,1.34-0.98,1.79
		C428.22,436.51,425.4,437,421.6,437 M421.6,441.21c9.39,0,14.98-2.46,14.98-7.29c0-4.74-5.59-7.29-14.98-7.29
		c-9.35,0-14.98,2.55-14.98,7.29C406.62,438.75,412.26,441.21,421.6,441.21 M379.66,450.24h12.74v-5.01h-24.15V429.8h-5.59v20.43
		h11.45v9.08h-18.47v5.14h42.48v-5.14h-18.47V450.24z M329.18,459.72v9.52h5.54V455.2H305.3v4.52H329.18z M323.32,439.78h-5.54v6.75
		h-18.47v4.69h42.48v-4.69h-18.47V439.78z M336.83,443.58l2.55-4.11l-16.32-7.96c0.89-1.25,1.65-2.59,2.28-4.02l-5.37-1.39
		c-2.59,6.08-9.75,10.69-18.74,13.37l2.77,4.47c5.81-2.01,11.45-4.83,15.69-8.72L336.83,443.58z M255.49,459.27h17.39v5.14h-17.39
		V459.27z M278.3,455.2h-28.17v13.5h28.17V455.2z M285.45,447.69h-42.48v4.52h42.48V447.69z M280.13,444.78v-3.98H255.4v-2.91h22.8
		v-10.6h-28.66v4.02h23.3v2.77h-22.85v10.69H280.13z M230.85,446.84c1.25-5.05,2.15-10.95,2.41-18.11h-29.11v4.87h23.39
		c-0.27,4.74-0.85,9.08-1.74,13.24h-27.54v4.96h18.42v17.3h5.63v-17.3h18.42v-4.96H230.85z M171.25,444.11
		c1.12-3.4,1.88-7.15,2.15-11.18h-17.62v5.01h11.67v0.13c-1.03,7.06-5.28,14.84-13.77,20.12l3.98,4.29
		c4.83-3.35,8.72-7.78,11.45-13.24h8.63v18.2h5.05v-39.62h-5.05v16.28H171.25z M187.93,468.97h5.14v-42.88h-5.14V468.97z
		 M139.15,461.24c0,0.94-0.36,1.7-1.12,2.24c-1.56,0.89-4.16,1.43-7.96,1.43c-3.8,0-6.39-0.54-7.96-1.43
		c-0.76-0.54-1.12-1.3-1.12-2.24c0-0.89,0.36-1.7,1.12-2.24c1.56-0.89,4.16-1.43,7.96-1.43c3.8,0,6.39,0.58,7.96,1.43
		C138.79,459.54,139.15,460.34,139.15,461.24 M151.31,445.05h-42.48v4.65h18.65v3.67c-7.78,0.49-12.3,3.35-12.3,7.91
		c0,5.19,5.5,8.05,14.89,8.05c9.39,0,14.89-2.86,14.89-8.05c0-4.56-4.47-7.42-12.25-7.91v-3.67h18.6V445.05z M121.48,431.95h17.17
		v5.72h-17.17V431.95z M115.98,441.92h28.17v-14.26h-28.17V441.92z M61.16,454.04v14.49h29.38v-4.92H66.71v-9.57H61.16z
		 M59.33,440.31c0-4.11,2.46-6.13,6.13-6.13c3.62,0,6.04,1.97,6.04,6.13s-2.41,6.17-6.04,6.17
		C61.79,446.48,59.33,444.47,59.33,440.31 M76.77,440.31c0-6.98-4.69-10.64-11.36-10.64c-6.62,0-11.36,3.67-11.36,10.64
		s4.74,10.64,11.36,10.64C72.07,450.95,76.77,447.29,76.77,440.31 M95.64,434.28h-6.71v-8.18h-5.41v32.15h5.41v-8.76h6.71v-4.56
		h-6.71v-6.04h6.71V434.28z M21.82,458.64c-3.31,0-5.14-1.7-5.14-4.34s1.83-4.34,5.14-4.34s5.14,1.7,5.14,4.34
		S25.13,458.64,21.82,458.64 M21.82,445.59c-6.17,0-10.28,3.62-10.28,8.76s4.11,8.81,10.28,8.81s10.24-3.67,10.24-8.81
		S27.99,445.59,21.82,445.59 M34.69,437.76H8.18v4.78h26.52V437.76z M13.19,433.52h17.3v-4.47h-17.3V433.52z M44.22,443.89v-17.8
		h-5.41v42.93h5.41v-19.85h6.71v-5.28H44.22z"/>
	<path d="M549.04,363.25v4.25h15.69v0.13c-1.97,7.74-8.99,16.1-18.24,21.1l2.86,3.85c4.6-2.73,8.94-6.26,12.48-10.46l9.43,9.7
		l2.86-3.53l-9.7-9.66c3-4.52,5.1-9.66,5.86-15.38H549.04z M582.21,375.64v-18.65h-4.61v42.93h4.61v-19.94h7.06v-4.34H582.21z
		 M537.5,393.66v-9.21h-28.66v3.44h23.97v2.5h-22.98v9.57h29.38v-3.53h-24.73v-2.77H537.5z M510.18,372.37
		c0-1.25,2.1-1.79,5.46-1.79c3.35,0,5.5,0.54,5.5,1.79c0,1.21-2.15,1.79-5.5,1.79C512.28,374.16,510.18,373.58,510.18,372.37
		 M530.17,377.38c-3.8,0.76-7.78,1.3-12.39,1.65v-1.88c4.74-0.36,7.51-2.01,7.51-4.69c0-3.09-3.62-4.78-9.66-4.78
		c-6.04,0-9.61,1.7-9.61,4.78c0,2.64,2.64,4.29,7.2,4.69v2.15c-3.49,0.13-7.33,0.22-11.63,0.22l0.45,3.76
		c11.94,0,20.93-0.76,28.61-2.37L530.17,377.38z M502.45,366.25h25.62v-3.49h-25.62V366.25z M507.68,361.01h16.19v-3.4h-16.19
		V361.01z M537.5,356.99h-4.56v25.53h4.56v-8.45h7.24v-4.11h-7.24V356.99z M476.87,394.73c1.79-0.94,3.13-2.06,4.07-3.26
		c1.12-1.39,1.56-2.73,1.79-3.98h-27.54v3.76h15.69l5.23-0.09v0.13c-4.07,2.5-13.73,4.2-24.77,4.43l1.74,3.85
		c7.06-0.27,12.88-1.07,17.44-2.33l14.89,2.33l1.7-3.58L476.87,394.73z M477.94,381.27h-18.02v3.53h18.02V381.27z M453.08,369.47
		h12.12v5.5h-12.12V369.47z M465.2,359.72v6.08h-12.12v-6.08h-4.43v19h20.93v-19H465.2z M478.61,380.33h4.69v-23.34h-4.69V380.33z
		 M437.83,399.74v-3.71h-25.26v-3.49h22.67v-10.42h-28.12v3.62h23.43v3.35h-22.67v10.64H437.83z M442.84,374.74h-42.48v4.02h42.48
		V374.74z M421.6,368.26c-4.07,0-7.06-0.54-8.63-1.43c-0.76-0.49-1.12-1.16-1.12-1.97c0-0.76,0.31-1.43,1.12-1.92
		c1.57-0.89,4.56-1.43,8.63-1.43c4.07,0,7.02,0.54,8.63,1.43c0.8,0.49,1.12,1.16,1.12,1.92c0,0.8-0.36,1.48-1.12,1.97
		C428.67,367.72,425.67,368.26,421.6,368.26 M421.6,372.15c9.12,0,14.62-2.5,14.62-7.29c0-4.74-5.5-7.24-14.62-7.24
		s-14.62,2.5-14.62,7.24C406.98,369.64,412.48,372.15,421.6,372.15 M379.26,381.14h13.01v-4.25h-24.59v-16.01h-4.69v20.26h11.58
		v9.57h-18.91v4.34h42.48v-4.34h-18.87V381.14z M329.67,390.35v9.79h4.74v-13.82h-28.84v4.02H329.67z M322.92,370.67h-4.69v7.15
		h-18.91v4.16h42.48v-4.16h-18.87V370.67z M336.83,374.47l2.24-3.62l-16.5-8.36c0.94-1.3,1.74-2.68,2.37-4.16l-4.65-1.25
		c-2.68,6.39-10.11,11.13-18.82,13.82l2.41,3.93c5.77-1.97,11.49-4.96,15.78-9.03L336.83,374.47z M255,389.9h18.33v5.77H255V389.9z
		 M277.94,386.19h-27.45v13.32h27.45V386.19z M285.45,378.86h-42.48v4.02h42.48V378.86z M279.9,375.59v-3.62h-24.95v-3.26h22.89
		v-10.33h-27.99v3.71h23.47v3.04h-22.98v10.46H279.9z M230.5,377.96c1.21-5.23,2.1-11.04,2.37-18.15h-28.48v4.25h23.61
		c-0.22,5.01-0.85,9.52-1.83,13.91h-27.9v4.25h18.87v17.89h4.74v-17.89h18.87v-4.25H230.5z M171.03,375.46
		c1.25-3.44,2.06-7.24,2.41-11.31h-17.53v4.2h12.39v0.18c-1.12,7.33-5.54,15.47-14.44,20.79l3.4,3.76
		c5.01-3.31,9.08-7.78,11.89-13.32h8.99v18.6h4.43v-39.62h-4.43v16.72H171.03z M188.38,399.87h4.47v-42.88h-4.47V399.87z
		 M139.68,392.18c0,1.03-0.36,1.88-1.21,2.5c-1.61,0.94-4.38,1.56-8.41,1.56c-4.02,0-6.84-0.58-8.41-1.56
		c-0.8-0.63-1.21-1.48-1.21-2.5c0-0.98,0.36-1.88,1.21-2.46c1.56-0.98,4.38-1.56,8.41-1.56c4.02,0,6.8,0.63,8.41,1.56
		C139.32,390.3,139.68,391.2,139.68,392.18 M151.31,376.17h-42.48v4.11h19.05v4.02c-7.78,0.45-12.3,3.22-12.3,7.91
		c0,5.1,5.37,7.96,14.49,7.96s14.49-2.86,14.49-7.96c0-4.65-4.52-7.47-12.25-7.91v-4.02h19V376.17z M121.04,362.53h18.06v6.35
		h-18.06V362.53z M116.34,372.73h27.45v-14.04h-27.45V372.73z M61.57,384.94v14.4h28.71v-4.25H66.26v-10.15H61.57z M58.75,371.16
		c0-4.34,2.73-6.48,6.66-6.48c3.85,0,6.57,2.1,6.57,6.48c0,4.43-2.73,6.53-6.57,6.53C61.48,377.69,58.75,375.59,58.75,371.16
		 M76.59,371.16c0-6.71-4.61-10.37-11.18-10.37c-6.57,0-11.22,3.67-11.22,10.37c0,6.8,4.65,10.46,11.22,10.46
		C71.99,381.63,76.59,377.96,76.59,371.16 M95.64,365.53h-7.06v-8.54h-4.61v32.15h4.61v-9.08h7.06v-3.98h-7.06v-6.57h7.06V365.53z
		 M21.91,389.77c-3.53,0-5.54-1.79-5.54-4.69c0-2.91,2.01-4.74,5.54-4.74c3.58,0,5.54,1.83,5.54,4.74
		C27.45,387.98,25.48,389.77,21.91,389.77 M21.91,376.4c-6.04,0-10.06,3.67-10.06,8.67c0,5.05,4.02,8.67,10.06,8.67
		s10.02-3.62,10.02-8.67C31.92,380.06,27.94,376.4,21.91,376.4 M34.78,368.79H8.18v4.16h26.6V368.79z M13.32,364.01h17.26v-3.98
		H13.32V364.01z M43.86,375.23v-18.24h-4.61v42.93h4.61v-20.34h7.06v-4.34H43.86z"/>
	<path d="M549.12,294.37v3.67h16.37v0.13c-1.97,7.82-9.3,16.59-18.91,21.69l2.42,3.31c4.78-2.77,9.3-6.35,12.92-10.69l9.75,9.93
		l2.46-3.09l-9.93-9.79c3.09-4.43,5.28-9.52,6.04-15.16H549.12z M581.9,306.93v-19.05h-3.94v42.93h3.94v-20.3h7.38v-3.58H581.9z
		 M537.19,324.51v-9.12h-28.08v3.26h24.1v2.73h-23.07v9.43h28.84v-3.31h-24.91v-3H537.19z M509.91,303.31
		c0-1.34,2.24-1.97,5.72-1.97c3.53,0,5.77,0.63,5.77,1.97c0,1.3-2.24,1.92-5.77,1.92C512.15,305.24,509.91,304.61,509.91,303.31
		 M530.39,308.37c-3.98,0.89-8.14,1.48-12.92,1.83v-2.01c4.74-0.36,7.6-2.01,7.6-4.83c0-3.13-3.58-4.83-9.43-4.83
		c-5.86,0-9.39,1.7-9.39,4.83c0,2.77,2.68,4.43,7.29,4.78v2.28c-3.53,0.18-7.47,0.27-11.89,0.27l0.4,3.49
		c12.25,0,21.1-0.76,28.84-2.55L530.39,308.37z M502.49,296.96h25.58v-3.22h-25.58V296.96z M507.81,291.87h15.92v-3.22h-15.92
		V291.87z M537.19,287.89h-3.94v25.49h3.94v-8.67h7.6v-3.58h-7.6V287.89z M476.24,325.8c1.92-1.03,3.4-2.15,4.43-3.4
		c1.12-1.39,1.61-2.68,1.83-3.89h-26.96V322h15.74l5.32-0.09v0.13c-4.07,2.73-13.95,4.61-24.95,4.87l1.61,3.49
		c6.98-0.31,12.74-1.16,17.26-2.41l14.89,2.41l1.61-3.22L476.24,325.8z M477.81,312.26h-17.62v3.31h17.62V312.26z M452.72,300.45
		h12.88v5.81h-12.88V300.45z M465.6,290.79v6.35h-12.88v-6.35h-3.85v18.78h20.57v-18.78H465.6z M479.06,311.36h4.02v-23.47h-4.02
		V311.36z M437.61,330.59v-3.4h-25.44v-3.8h22.76v-10.24h-27.54v3.35h23.52v3.62h-22.71v10.46H437.61z M442.84,305.91h-42.48v3.62
		h42.48V305.91z M421.6,299.47c-4.29,0-7.47-0.58-9.03-1.56c-0.8-0.54-1.16-1.25-1.16-2.1c0-0.85,0.31-1.56,1.16-2.1
		c1.56-0.94,4.74-1.57,9.03-1.57c4.29,0,7.42,0.63,9.03,1.57c0.85,0.54,1.16,1.25,1.16,2.1c0,0.85-0.36,1.57-1.16,2.1
		C429.07,298.89,425.9,299.47,421.6,299.47 M421.6,303.04c8.9,0,14.31-2.5,14.31-7.24c0-4.74-5.41-7.24-14.31-7.24
		c-8.9,0-14.31,2.5-14.31,7.24C407.29,300.54,412.7,303.04,421.6,303.04 M378.9,312.03h13.24v-3.67h-24.91v-16.45h-4.02v20.12h11.67
		V322h-19.23v3.71h42.48V322H378.9V312.03z M330.07,320.98v10.06h4.11V317.4h-28.35v3.58H330.07z M322.56,301.52h-4.02v7.51h-19.23
		v3.71h42.48v-3.71h-19.23V301.52z M336.78,305.37l2.01-3.22l-16.59-8.67c0.94-1.34,1.79-2.73,2.41-4.25l-4.11-1.16
		c-2.73,6.57-10.33,11.49-18.87,14.13l2.1,3.53c5.72-1.97,11.58-5.05,15.87-9.3L336.78,305.37z M254.64,320.57h19.09v6.3h-19.09
		V320.57z M277.62,317.17H250.8v13.19h26.83V317.17z M285.45,309.93h-42.48v3.67h42.48V309.93z M279.73,306.44v-3.35h-25.17v-3.58
		h23.03v-10.06h-27.45v3.4h23.56v3.31h-23.07v10.28H279.73z M230.18,309.04c1.25-5.37,2.1-11.13,2.41-18.2h-27.99v3.71h23.79
		c-0.27,5.23-0.89,9.88-1.92,14.49h-28.21v3.71h19.23v18.29h4.02v-18.29h19.23v-3.71H230.18z M170.85,306.71
		c1.34-3.49,2.28-7.33,2.64-11.45H156v3.62h12.97v0.13c-1.16,7.6-5.77,16.01-14.98,21.42l2.95,3.26c5.14-3.26,9.39-7.78,12.3-13.41
		h9.26v18.96h3.89v-39.57h-3.89v17.04H170.85z M188.73,330.77h3.93v-42.88h-3.93V330.77z M140.13,323.12c0,1.07-0.4,2.01-1.3,2.68
		c-1.61,0.98-4.52,1.65-8.76,1.65c-4.25,0-7.2-0.63-8.76-1.65c-0.85-0.67-1.3-1.61-1.3-2.68s0.4-2.01,1.3-2.68
		c1.56-1.03,4.52-1.65,8.76-1.65c4.25,0,7.15,0.67,8.76,1.65C139.73,321.11,140.13,322.05,140.13,323.12 M151.31,307.25h-42.48v3.67
		h19.41v4.34c-7.82,0.36-12.34,3.17-12.34,7.87c0,5.05,5.23,7.91,14.17,7.91s14.17-2.86,14.17-7.91c0-4.69-4.52-7.51-12.3-7.87
		v-4.34h19.36V307.25z M120.68,293.16h18.78v6.89h-18.78V293.16z M116.65,303.54h26.83v-13.86h-26.83V303.54z M61.88,315.83v14.31
		h28.17v-3.67H65.9v-10.64H61.88z M58.3,302.06c0-4.56,2.95-6.75,7.06-6.75c4.07,0,7.02,2.15,7.02,6.75c0,4.61-2.95,6.8-7.02,6.8
		C61.25,308.86,58.3,306.67,58.3,302.06 M76.41,302.06c0-6.57-4.52-10.24-11.04-10.24s-11.09,3.67-11.09,10.24
		c0,6.62,4.56,10.28,11.09,10.28S76.41,308.68,76.41,302.06 M95.64,296.7h-7.38v-8.81h-3.93v32.19h3.93v-9.39h7.38v-3.49h-7.38
		v-7.02h7.38V296.7z M22,320.84c-3.76,0-5.86-1.88-5.86-5.01c0-3.09,2.1-5.01,5.86-5.01s5.86,1.92,5.86,5.01
		C27.85,318.96,25.75,320.84,22,320.84 M22,307.25c-5.95,0-9.88,3.67-9.88,8.59s3.93,8.59,9.88,8.59s9.84-3.67,9.84-8.59
		S27.94,307.25,22,307.25 M34.83,299.78H8.22v3.67h26.6V299.78z M13.46,294.59h17.17v-3.58H13.46V294.59z M43.55,306.49v-18.6h-3.93
		v42.93h3.93v-20.75h7.38v-3.58H43.55z"/>
	<path d="M549.22,225.45v2.82h17.12v0.13c-2.33,8.63-10.06,17.48-19.63,22.63l1.88,2.5c4.87-2.77,9.48-6.44,13.19-10.91l10.24,10.15
		l1.88-2.37l-10.37-10.02c3.18-4.38,5.5-9.39,6.48-14.93H549.22z M581.45,238.19v-19.41h-3v42.93h3v-20.79h7.82v-2.73H581.45z
		 M536.74,255v-8.54h-27.41v2.55h24.37v3.58h-23.12v8.94h28.17v-2.55h-25.17V255H536.74z M509.38,234.25c0-1.57,2.28-2.41,6.26-2.41
		c3.98,0,6.26,0.85,6.26,2.41c0,1.56-2.28,2.41-6.26,2.41C511.66,236.67,509.38,235.82,509.38,234.25 M530.7,239.67
		c-3.98,0.89-8.45,1.52-13.64,1.88v-2.59c4.83-0.27,7.6-1.88,7.6-4.65c0-3-3.31-4.65-9.03-4.65c-5.72,0-9.03,1.65-9.03,4.65
		c0,2.77,2.73,4.38,7.47,4.65v2.82c-3.71,0.18-7.82,0.27-12.34,0.27l0.31,2.68c12.25,0,21.6-0.8,29.06-2.55L530.7,239.67z
		 M502.49,227.5h25.44V225h-25.44V227.5z M507.86,222.32h15.69v-2.46h-15.69V222.32z M536.74,218.78h-3v25.4h3v-8.99h8v-2.73h-8
		V218.78z M474.54,256.92c2.41-1.12,4.34-2.41,5.63-3.89c0.98-1.16,1.52-2.24,1.74-3.31h-26.29v2.68h16.63l5.05-0.09v0.18
		c-4.34,3.4-14.08,5.63-25.53,6.04l1.21,2.68c6.93-0.31,12.65-1.25,17.21-2.64l15.25,2.64l1.21-2.46L474.54,256.92z M477.5,243.47
		h-17.26v2.55h17.26V243.47z M452.1,230.95h14.08v6.66H452.1V230.95z M466.18,221.73v6.66H452.1v-6.66h-2.95v18.38h19.99v-18.38
		H466.18z M479.55,242.39h3.09v-23.61h-3.09V242.39z M437.39,261.35v-2.59h-25.71v-4.83h22.89v-9.61h-26.92v2.59h23.88v4.47h-22.89
		v9.97H437.39z M442.84,237.25h-42.48v2.77h42.48V237.25z M421.6,231.08c-4.47,0-7.74-0.63-9.43-1.83
		c-0.89-0.63-1.34-1.48-1.34-2.46c0-1.03,0.4-1.83,1.34-2.5c1.7-1.12,4.96-1.83,9.43-1.83s7.74,0.72,9.43,1.83
		c0.94,0.67,1.34,1.48,1.34,2.5c0,0.98-0.45,1.83-1.34,2.46C429.34,230.45,426.07,231.08,421.6,231.08 M421.6,233.85
		c8.81,0,13.91-2.5,13.91-7.06c0-4.56-5.1-7.06-13.91-7.06c-8.81,0-13.91,2.5-13.91,7.06C407.7,231.35,412.79,233.85,421.6,233.85
		 M378.41,242.66h13.64v-2.82h-25.53v-16.86h-3.04v19.67h11.89v10.78h-19.72v2.82h42.48v-2.82h-19.72V242.66z M330.74,251.38v10.55
		h3.13v-13.32h-27.95v2.77H330.74z M322.07,232.42h-3.04v7.96h-19.72v2.86h42.48v-2.86h-19.72V232.42z M336.96,236l1.52-2.46
		l-16.9-8.99c1.07-1.39,1.97-2.86,2.64-4.47l-3.13-0.89c-2.82,6.66-10.42,11.71-18.96,14.49l1.61,2.68
		c5.81-2.06,11.67-5.23,15.87-9.52L336.96,236z M254.1,251.07h20.21v7.38H254.1V251.07z M277.27,248.47h-26.11v12.65h26.11V248.47z
		 M285.45,241.36h-42.48v2.77h42.48V241.36z M279.46,237.12v-2.55h-25.4v-4.56h23.12v-9.39h-26.78v2.59h23.79v4.2h-23.12v9.7H279.46
		z M229.74,240.25c1.3-5.23,2.24-11.31,2.55-18.2h-27.54v2.82h24.37c-0.31,5.46-1.12,10.69-2.19,15.38h-28.66v2.86h19.72v18.82h3.04
		v-18.82h19.72v-2.86H229.74z M170.45,238.06c1.52-3.53,2.5-7.42,2.95-11.58h-17.35v2.77h13.91v0.13
		c-1.3,8.18-6.39,16.99-15.74,22.31l2.19,2.5c5.37-3.22,9.7-7.78,12.7-13.41h9.93v19.32h2.95v-39.53h-2.95v17.48H170.45z
		 M189.36,261.75h3v-42.97h-3V261.75z M140.8,253.97c0,1.21-0.45,2.24-1.39,3c-1.79,1.21-4.87,1.97-9.35,1.97
		c-4.47,0-7.6-0.72-9.35-1.97c-0.89-0.76-1.39-1.79-1.39-3c0-1.16,0.45-2.19,1.39-2.95c1.74-1.21,4.87-1.97,9.35-1.97
		c4.47,0,7.56,0.76,9.35,1.97C140.35,251.78,140.8,252.81,140.8,253.97 M151.31,238.59h-42.48v2.82h19.85v4.96
		c-8,0.27-12.48,3.04-12.48,7.6c0,4.87,5.01,7.69,13.86,7.69c8.9,0,13.86-2.82,13.86-7.69c0-4.56-4.43-7.33-12.43-7.6v-4.96h19.81
		V238.59z M120.05,223.52h20.03v8.09h-20.03V223.52z M117.01,234.3h26.16v-13.46h-26.16V234.3z M62.28,246.77v14.08h27.5v-2.82
		H65.32v-11.27H62.28z M57.72,233c0-4.78,3.22-7.29,7.65-7.29c4.38,0,7.6,2.46,7.6,7.29c0,4.87-3.22,7.33-7.6,7.33
		C60.94,240.34,57.72,237.88,57.72,233 M76.01,233c0-6.35-4.43-9.97-10.64-9.97c-6.26,0-10.69,3.62-10.69,9.97
		c0,6.44,4.43,10.02,10.69,10.02C71.58,243.02,76.01,239.44,76.01,233 M95.64,227.99h-7.82v-9.21h-3v32.33h3v-9.93h7.82v-2.68h-7.82
		v-7.82h7.82V227.99z M22.08,252.32c-4.16,0-6.53-2.15-6.53-5.59c0-3.4,2.37-5.59,6.53-5.59c4.07,0,6.48,2.19,6.48,5.59
		C28.57,250.17,26.15,252.32,22.08,252.32 M22.08,238.41c-5.81,0-9.61,3.53-9.61,8.32c0,4.78,3.8,8.36,9.61,8.36
		c5.77,0,9.52-3.58,9.52-8.36C31.61,241.95,27.85,238.41,22.08,238.41 M34.92,231.12H8.31v2.77h26.6V231.12z M13.54,225.09h17.08
		v-2.73H13.54V225.09z M43.1,238.14v-19.36h-3v42.93h3v-20.84h7.82v-2.73H43.1z"/>
	<path d="M549.31,156.52v2.06h17.8v0.18c-2.68,9.3-10.73,18.2-20.26,23.43l1.39,1.79c4.92-2.82,9.61-6.57,13.41-11.13l10.69,10.37
		l1.39-1.74l-10.78-10.28c3.26-4.29,5.68-9.17,6.84-14.67H549.31z M581.01,169.4v-19.72h-2.15v42.93h2.15v-21.19h8.27v-2.01H581.01z
		 M536.29,185.54v-8h-26.74v1.88h24.55v4.34h-23.16v8.5h27.59v-1.88h-25.4v-4.83H536.29z M508.93,165.24c0-1.79,2.28-2.86,6.66-2.86
		c4.38,0,6.71,1.07,6.71,2.86c0,1.74-2.33,2.82-6.71,2.82C511.21,168.06,508.93,166.98,508.93,165.24 M530.97,170.92
		c-4.02,0.89-8.76,1.52-14.26,1.92v-3.09c4.92-0.18,7.65-1.79,7.65-4.52c0-2.86-3.13-4.52-8.76-4.52c-5.59,0-8.72,1.65-8.72,4.52
		c0,2.73,2.73,4.34,7.65,4.56v3.17c-3.89,0.22-8.14,0.31-12.74,0.31l0.22,1.97c12.25,0,22.04-0.76,29.29-2.46L530.97,170.92z
		 M502.53,158.09h25.26v-1.83h-25.26V158.09z M507.9,152.86h15.52v-1.88H507.9V152.86z M536.29,149.68h-2.15v25.35h2.15v-9.3h8.36
		v-2.01h-8.36V149.68z M473.02,188.04c2.91-1.25,5.19-2.73,6.75-4.34c0.89-0.98,1.43-1.88,1.65-2.82h-25.71v1.97l22.22-0.04v0.18
		c-4.61,3.98-14.22,6.53-26.07,7.06l0.85,2.01c6.89-0.4,12.65-1.39,17.21-2.91l15.56,2.91l0.89-1.83L473.02,188.04z M477.23,174.68
		h-16.95v1.88h16.95V174.68z M451.52,161.49h15.16v7.38h-15.16V161.49z M466.67,152.72v6.93h-15.16v-6.93h-2.15v18.02h19.45v-18.02
		H466.67z M480,173.42h2.19v-23.74H480V173.42z M437.21,192.11v-1.92h-25.98v-5.72h23.07v-9.03h-26.43v1.92h24.19v5.28h-23.03v9.48
		H437.21z M442.84,168.59h-42.48v2.01h42.48V168.59z M421.6,162.65c-4.61,0-8-0.76-9.79-2.06c-0.98-0.76-1.48-1.7-1.48-2.86
		c0-1.12,0.45-2.06,1.48-2.77c1.79-1.3,5.19-2.1,9.79-2.1c4.61,0,7.96,0.76,9.79,2.1c1.03,0.72,1.48,1.65,1.48,2.77
		c0,1.16-0.49,2.1-1.48,2.86C429.61,161.89,426.21,162.65,421.6,162.65 M421.6,164.66c8.72,0,13.55-2.5,13.55-6.93
		c0-4.34-4.83-6.89-13.55-6.89c-8.72,0-13.55,2.55-13.55,6.89C408.05,162.16,412.88,164.66,421.6,164.66 M378.01,173.29h13.95v-2.01
		h-26.07v-17.26h-2.19v19.27h12.07v11.49h-20.12v2.06h42.48v-2.06h-20.12V173.29z M331.28,181.83v11h2.28v-13.01h-27.54v2.01H331.28
		z M321.67,163.32h-2.24v8.41h-20.12v2.06h42.48v-2.06h-20.12V163.32z M337.09,166.67l1.12-1.79l-17.17-9.26
		c1.16-1.43,2.1-3,2.82-4.65l-2.24-0.67c-2.95,6.75-10.51,11.85-19.05,14.76l1.21,1.97c5.9-2.1,11.76-5.41,15.83-9.75L337.09,166.67
		z M253.66,181.65h21.15v8.32h-21.15V181.65z M276.95,179.73h-25.44v12.16h25.44V179.73z M285.45,172.71h-42.48v2.06h42.48V172.71z
		 M279.23,167.88v-1.92h-25.58v-5.41h23.16v-8.81h-26.2v1.92h24.01v5.01h-23.16v9.21H279.23z M229.29,171.46
		c1.34-5.05,2.37-11.45,2.73-18.24h-27.14v2.06h24.86c-0.36,5.68-1.34,11.45-2.5,16.19h-28.97v2.06h20.12v19.32h2.24v-19.32h20.12
		v-2.06H229.29z M170.04,169.31c1.7-3.58,2.82-7.51,3.31-11.67h-17.3v2.06h14.71v0.13c-1.39,8.67-6.89,17.8-16.41,23.07l1.61,1.83
		c5.54-3.22,10.02-7.82,13.06-13.41h10.46v19.58h2.15v-39.44h-2.15v17.84H170.04z M189.85,192.7h2.19v-43.01h-2.19V192.7z
		 M141.43,184.87c0,1.25-0.54,2.37-1.52,3.22c-1.92,1.39-5.19,2.24-9.84,2.24c-4.65,0-7.96-0.8-9.84-2.24
		c-0.94-0.85-1.52-1.97-1.52-3.22c0-1.3,0.54-2.41,1.52-3.22c1.88-1.39,5.19-2.24,9.84-2.24c4.65,0,7.91,0.85,9.84,2.24
		C140.89,182.46,141.43,183.57,141.43,184.87 M151.31,169.94h-42.48v2.01h20.21v5.46c-8.14,0.22-12.56,3-12.56,7.47
		c0,4.65,4.78,7.42,13.59,7.42s13.59-2.77,13.59-7.42c0-4.47-4.38-7.24-12.52-7.47v-5.46h20.17V169.94z M119.52,153.93h21.1v9.17
		h-21.1V153.93z M117.28,165.06h25.58v-13.1h-25.58V165.06z M62.64,177.76v13.82h26.92v-2.06H64.83v-11.76H62.64z M57.23,163.99
		c0-5.05,3.4-7.78,8.14-7.78c4.69,0,8.09,2.73,8.09,7.78c0,5.05-3.4,7.78-8.09,7.78C60.63,171.77,57.23,169.04,57.23,163.99
		 M75.65,163.99c0-6.22-4.29-9.75-10.28-9.75s-10.33,3.53-10.33,9.75c0,6.22,4.34,9.75,10.33,9.75S75.65,170.2,75.65,163.99
		 M95.64,159.25h-8.27v-9.57h-2.15v32.46h2.15v-10.42h8.27v-1.97h-8.27v-8.54h8.27V159.25z M22.13,183.75
		c-4.43,0-7.11-2.41-7.11-6.08c0-3.71,2.68-6.13,7.11-6.13c4.38,0,7.06,2.41,7.06,6.13C29.19,181.34,26.51,183.75,22.13,183.75
		 M22.13,169.53c-5.63,0-9.3,3.44-9.3,8.14c0,4.65,3.67,8.09,9.3,8.09s9.26-3.44,9.26-8.09C31.39,172.98,27.76,169.53,22.13,169.53
		 M34.96,162.38H8.36v2.06h26.6V162.38z M13.63,155.67h16.95v-2.01H13.63V155.67z M42.65,169.71v-20.03h-2.15v42.93h2.15v-20.88
		h8.27v-2.01H42.65z"/>
	<path d="M549.39,87.6v1.34h18.38v0.18c-3,9.97-11.31,18.91-20.84,24.19l0.98,1.16c4.97-2.86,9.75-6.66,13.64-11.31l11.04,10.51
		l0.94-1.12l-11.09-10.51c3.31-4.2,5.86-9.03,7.2-14.44H549.39z M580.65,100.56V80.58h-1.43v42.93h1.43v-21.55h8.63v-1.39H580.65z
		 M535.94,116.12v-7.51h-26.2v1.3h24.73v4.96h-23.21v8.09h27.09v-1.3h-25.62v-5.54H535.94z M508.53,96.18
		c0-1.97,2.33-3.22,7.06-3.22c4.74,0,7.06,1.25,7.06,3.22c0,1.97-2.33,3.17-7.06,3.17C510.85,99.36,508.53,98.15,508.53,96.18
		 M531.24,102.13c-4.03,0.94-9.03,1.57-14.84,1.97v-3.49c4.96-0.18,7.65-1.79,7.65-4.43c0-2.73-2.95-4.38-8.45-4.38
		c-5.5,0-8.45,1.65-8.45,4.38c0,2.68,2.73,4.29,7.82,4.43v3.58c-4.03,0.22-8.45,0.31-13.15,0.31l0.18,1.39
		c12.25,0,22.4-0.8,29.46-2.46L531.24,102.13z M502.53,88.72h25.17v-1.3h-25.17V88.72z M507.9,83.39h15.38v-1.3H507.9V83.39z
		 M535.94,80.58h-1.43v25.31h1.43v-9.57h8.67v-1.39h-8.67V80.58z M471.82,119.03c3.26-1.3,5.81-2.86,7.6-4.61
		c0.76-0.8,1.34-1.61,1.56-2.37h-25.17v1.34l22.71-0.04v0.18c-4.87,4.52-14.4,7.33-26.56,8l0.54,1.34c6.89-0.4,12.65-1.48,17.3-3.09
		l15.74,3.09l0.58-1.21L471.82,119.03z M477,105.84h-16.68v1.3H477V105.84z M451.02,92.07h16.1v8h-16.1V92.07z M467.12,83.66v7.15
		h-16.1v-7.15h-1.43v17.71h18.96V83.66H467.12z M480.36,104.41h1.48V80.58h-1.48V104.41z M437.03,122.92v-1.3h-26.16v-6.53h23.16
		v-8.54h-25.98v1.3h24.5v5.95H409.4v9.12H437.03z M442.84,99.85h-42.48v1.34h42.48V99.85z M421.6,94.08
		c-4.69,0-8.23-0.76-10.11-2.24c-1.03-0.85-1.61-1.88-1.61-3.13c0-1.25,0.54-2.28,1.61-3.09c1.88-1.43,5.41-2.28,10.11-2.28
		c4.69,0,8.18,0.8,10.11,2.28c1.07,0.8,1.61,1.83,1.61,3.09c0,1.25-0.54,2.28-1.61,3.13C429.83,93.32,426.3,94.08,421.6,94.08
		 M421.6,95.47c8.63,0,13.24-2.5,13.24-6.75c0-4.2-4.61-6.75-13.24-6.75s-13.24,2.55-13.24,6.75
		C408.37,92.96,412.97,95.47,421.6,95.47 M377.65,103.96h14.22v-1.34h-26.56V85h-1.43v18.96h12.25v12.16h-20.48v1.34h42.48v-1.34
		h-20.48V103.96z M331.82,112.32v11.4h1.48v-12.74h-27.19v1.34H331.82z M321.31,94.22h-1.52v8.76h-20.48v1.39h42.48v-1.39h-20.48
		V94.22z M337.23,97.39l0.76-1.25l-17.44-9.48c1.25-1.48,2.28-3.13,3-4.83l-1.48-0.45c-3.04,6.84-10.6,11.98-19.09,15.02l0.8,1.34
		c5.95-2.15,11.8-5.59,15.83-9.97L337.23,97.39z M253.21,112.23h22v9.12h-22V112.23z M276.69,110.94h-24.91v11.76h24.91V110.94z
		 M285.45,104.05h-42.48v1.34h42.48V104.05z M279.01,98.6v-1.3H253.3v-6.17h23.21v-8.27H250.8v1.3h24.23v5.68h-23.21v8.76H279.01z
		 M228.89,102.62c1.43-4.92,2.55-11.63,2.86-18.29h-26.78v1.39h25.26c-0.31,5.81-1.43,12.16-2.73,16.9h-29.24v1.39h20.48v19.72h1.52
		v-19.72h20.48v-1.39H228.89z M169.69,100.52c1.79-3.62,3.04-7.56,3.58-11.72h-17.17v1.34h15.43v0.18
		c-1.48,9.12-7.38,18.51-16.99,23.74l1.03,1.25c5.68-3.17,10.24-7.82,13.37-13.41h10.95v19.85h1.43V82.37h-1.43v18.15H169.69z
		 M190.34,123.68h1.43v-43.1h-1.43V123.68z M141.92,115.72c0,1.39-0.54,2.5-1.61,3.44c-2.01,1.56-5.41,2.46-10.24,2.46
		c-4.83,0-8.27-0.85-10.24-2.46c-1.03-0.94-1.61-2.06-1.61-3.44c0-1.34,0.54-2.5,1.61-3.4c1.97-1.57,5.41-2.5,10.24-2.5
		c4.83,0,8.23,0.94,10.24,2.5C141.38,113.22,141.92,114.38,141.92,115.72 M151.31,101.19h-42.48v1.34h20.52v5.95
		c-8.32,0.13-12.65,2.91-12.65,7.24c0,4.52,4.61,7.24,13.37,7.24c8.76,0,13.37-2.73,13.37-7.24c0-4.34-4.34-7.11-12.65-7.24v-5.95
		h20.52V101.19z M119.02,84.42h22.09v10.06h-22.09V84.42z M117.55,95.87h25.04V83.08h-25.04V95.87z M62.95,108.7v13.59h26.38v-1.34
		H64.43V108.7H62.95z M56.83,94.93c0-5.23,3.53-8.18,8.54-8.18c4.96,0,8.5,2.95,8.5,8.18c0,5.23-3.53,8.18-8.5,8.18
		C60.36,103.11,56.83,100.16,56.83,94.93 M75.34,94.93c0-6.08-4.2-9.52-9.97-9.52s-10.02,3.44-10.02,9.52
		c0,6.08,4.25,9.52,10.02,9.52S75.34,101.01,75.34,94.93 M95.64,90.46h-8.63v-9.88h-1.43v32.55h1.43v-10.82h8.63v-1.34h-8.63V91.8
		h8.63V90.46z M22.17,115.14c-4.69,0-7.6-2.64-7.6-6.57c0-3.93,2.91-6.57,7.6-6.57c4.65,0,7.56,2.64,7.56,6.57
		C29.73,112.5,26.82,115.14,22.17,115.14 M22.17,100.61c-5.5,0-9.08,3.4-9.08,7.96c0,4.56,3.58,7.96,9.08,7.96s9.03-3.4,9.03-7.96
		C31.21,104.01,27.67,100.61,22.17,100.61 M35.01,93.63H8.4v1.39h26.6V93.63z M13.72,86.26h16.86v-1.34H13.72V86.26z M42.3,101.19
		V80.58h-1.43v42.93h1.43v-20.97h8.63v-1.34H42.3z"/>
	<path d="M549.44,18.63v0.76h18.91v0.18c-3.22,10.51-11.85,19.5-21.33,24.82l0.58,0.63c5.01-2.91,9.88-6.75,13.86-11.49l11.4,10.69
		l0.54-0.63l-11.45-10.69c3.35-4.11,6.04-8.9,7.51-14.26H549.44z M580.34,31.73V11.47h-0.8V54.4h0.8V32.49h8.94v-0.76H580.34z
		 M535.62,46.75v-7.11h-25.71v0.76h24.91v5.59h-23.25v7.74h26.6v-0.76h-25.8v-6.22H535.62z M508.17,27.12
		c0-2.15,2.33-3.53,7.42-3.53c5.05,0,7.38,1.39,7.38,3.53s-2.33,3.53-7.38,3.53C510.49,30.66,508.17,29.27,508.17,27.12
		 M531.46,33.34c-4.02,0.94-9.3,1.56-15.33,1.97v-3.89c5.05-0.13,7.65-1.74,7.65-4.29c0-2.64-2.77-4.29-8.18-4.29
		c-5.41,0-8.23,1.65-8.23,4.29c0,2.59,2.73,4.25,7.96,4.29v3.93c-4.16,0.22-8.72,0.36-13.46,0.36l0.13,0.8
		c12.25,0,22.76-0.8,29.6-2.41L531.46,33.34z M502.53,19.34h25.08v-0.76h-25.08V19.34z M507.95,13.98h15.2v-0.76h-15.2V13.98z
		 M535.62,11.47h-0.8v25.26h0.8V26.9h8.94v-0.76h-8.94V11.47z M470.7,50.06c3.53-1.39,6.35-3.09,8.36-4.92
		c0.72-0.67,1.3-1.3,1.52-1.97H455.9v0.76h23.12v0.18c-5.05,4.96-14.49,8.05-26.96,8.81l0.27,0.8c6.8-0.45,12.61-1.61,17.26-3.26
		l16.01,3.26l0.31-0.72L470.7,50.06z M476.78,36.96h-16.41v0.76h16.41V36.96z M450.58,22.7h16.95v8.59h-16.95V22.7z M467.52,14.6
		v7.38h-16.95V14.6h-0.8v17.44h18.56V14.6H467.52z M480.71,35.4h0.8V11.47h-0.8V35.4z M436.89,53.73v-0.76h-26.38v-7.24h23.3v-8.09
		h-25.58v0.76H433v6.57h-23.3v8.76H436.89z M442.84,31.06h-42.48v0.76h42.48V31.06z M421.6,25.51c-4.83,0-8.41-0.85-10.42-2.46
		c-1.07-0.89-1.7-2.01-1.7-3.4c0-1.34,0.58-2.46,1.7-3.35c2.01-1.56,5.59-2.46,10.42-2.46c4.83,0,8.41,0.85,10.42,2.46
		c1.12,0.89,1.7,2.01,1.7,3.35c0,1.39-0.58,2.5-1.7,3.4C430.01,24.66,426.43,25.51,421.6,25.51 M421.6,26.32
		c8.59,0,12.92-2.55,12.92-6.66c0-4.07-4.34-6.62-12.92-6.62s-12.92,2.55-12.92,6.62C408.68,23.77,413.02,26.32,421.6,26.32
		 M377.29,34.68h14.49v-0.76h-26.96V16.04h-0.76v18.65h12.43v12.7h-20.84v0.76h42.48v-0.76h-20.84V34.68z M332.26,42.86v11.76h0.8
		V42.1h-26.92v0.76H332.26z M320.95,25.11h-0.8v9.08h-20.84v0.76h42.48v-0.76h-20.84V25.11z M337.36,28.11l0.4-0.72l-17.66-9.7
		c1.34-1.52,2.41-3.22,3.17-4.96l-0.8-0.27c-3.09,6.89-10.64,12.12-19.14,15.25l0.45,0.76c6.04-2.24,11.85-5.72,15.83-10.15
		L337.36,28.11z M252.85,42.86h22.76v9.88h-22.76V42.86z M276.42,42.1h-24.37v11.4h24.37V42.1z M285.45,35.31h-42.48v0.76h42.48
		V35.31z M278.83,29.36V28.6h-25.89v-6.84h23.25v-7.82h-25.22v0.76h24.41V21h-23.25v8.36H278.83z M228.53,33.74
		c1.43-4.69,2.68-11.76,3-18.29h-26.47v0.76h25.71c-0.36,5.9-1.65,12.79-3,17.53h-29.51v0.76h20.84v20.12h0.8V34.5h20.84v-0.76
		H228.53z M169.33,31.73c1.97-3.67,3.31-7.65,3.89-11.8h-17.13v0.76h16.1v0.18c-1.56,9.52-7.78,19.18-17.53,24.32l0.54,0.76
		c5.81-3.17,10.51-7.87,13.68-13.46h11.36v20.12h0.8V13.26h-0.8v18.47H169.33z M190.75,54.62h0.8V11.47h-0.8V54.62z M142.41,46.62
		c0,1.43-0.58,2.64-1.7,3.62c-2.1,1.7-5.68,2.68-10.64,2.68c-4.96,0-8.59-0.94-10.64-2.68c-1.07-0.98-1.7-2.19-1.7-3.62
		s0.58-2.68,1.7-3.62c2.1-1.7,5.68-2.73,10.64-2.73c4.96,0,8.54,1.03,10.64,2.73C141.83,43.94,142.41,45.19,142.41,46.62
		 M151.31,32.4h-42.48v0.76h20.84v6.35c-8.45,0.09-12.74,2.86-12.74,7.11c0,4.34,4.43,7.06,13.15,7.06s13.15-2.73,13.15-7.06
		c0-4.25-4.29-7.02-12.74-7.11v-6.35h20.84V32.4z M118.58,14.92h22.98v10.95h-22.98V14.92z M117.77,26.68h24.59V14.16h-24.59V26.68z
		 M63.22,39.64v13.41h25.93V52.3H64.03V39.64H63.22z M56.43,25.87c0-5.41,3.71-8.54,8.94-8.54c5.19,0,8.9,3.13,8.9,8.54
		c0,5.41-3.71,8.54-8.9,8.54C60.14,34.41,56.43,31.28,56.43,25.87 M75.07,25.87c0-5.95-4.16-9.35-9.7-9.35
		c-5.59,0-9.75,3.4-9.75,9.35s4.16,9.35,9.75,9.35C70.91,35.22,75.07,31.82,75.07,25.87 M95.64,21.67H86.7V11.47h-0.8v32.64h0.8
		V32.94h8.94v-0.76H86.7v-9.75h8.94V21.67z M22.22,46.44c-4.96,0-8.05-2.82-8.05-6.98c0-4.16,3.09-6.98,8.05-6.98
		c4.92,0,8,2.82,8,6.98C30.22,43.62,27.14,46.44,22.22,46.44 M22.22,31.68c-5.37,0-8.85,3.31-8.85,7.78c0,4.47,3.49,7.78,8.85,7.78
		s8.81-3.31,8.81-7.78C31.03,34.99,27.58,31.68,22.22,31.68 M35.05,24.84H8.45v0.76h26.6V24.84z M13.81,16.88h16.77v-0.76H13.81
		V16.88z M41.98,32.62V11.47h-0.8V54.4h0.8V33.38h8.94v-0.76H41.98z"/>
</g>
</svg>
